<?xml version="1.0" encoding="UTF-8" standalone="no"?>
<!-- Created with Inkscape (http://www.inkscape.org/) -->

<svg
   width="256"
   height="256"
   viewBox="0 0 256 256"
   version="1.1"
   id="svg1"
   inkscape:version="1.3.2 (091e20e, 2023-11-25, custom)"
   sodipodi:docname="Stabilization.svg"
   inkscape:export-filename="attitude.png"
   inkscape:export-xdpi="192"
   inkscape:export-ydpi="192"
   xmlns:inkscape="http://www.inkscape.org/namespaces/inkscape"
   xmlns:sodipodi="http://sodipodi.sourceforge.net/DTD/sodipodi-0.dtd"
   xmlns="http://www.w3.org/2000/svg"
   xmlns:svg="http://www.w3.org/2000/svg">
  <sodipodi:namedview
     id="namedview1"
     pagecolor="#030303"
     bordercolor="#000000"
     borderopacity="0.25"
     inkscape:showpageshadow="2"
     inkscape:pageopacity="0.0"
     inkscape:pagecheckerboard="true"
     inkscape:deskcolor="#bcbcbc"
     inkscape:document-units="px"
     inkscape:zoom="2.8284272"
     inkscape:cx="126.39533"
     inkscape:cy="120.38493"
     inkscape:window-width="1920"
     inkscape:window-height="1017"
     inkscape:window-x="-8"
     inkscape:window-y="-8"
     inkscape:window-maximized="1"
     inkscape:current-layer="layer1" />
  <defs
     id="defs1">
    <inkscape:path-effect
       effect="bspline"
       id="path-effect63"
       is_visible="true"
       lpeversion="1.3"
       weight="33.333333"
       steps="2"
       helper_size="0"
       apply_no_weight="true"
       apply_with_weight="true"
       only_selected="false"
       uniform="false" />
    <inkscape:path-effect
       effect="powerstroke"
       id="path-effect61"
       is_visible="true"
       lpeversion="1.3"
       scale_width="1"
       interpolator_type="CubicBezierJohan"
       interpolator_beta="0.2"
       start_linecap_type="zerowidth"
       end_linecap_type="zerowidth"
       offset_points="0,4.9921383"
       linejoin_type="extrp_arc"
       miter_limit="4"
       not_jump="false"
       sort_points="true"
       message="&lt;b&gt;Ctrl + click&lt;/b&gt; on existing node and move it" />
    <inkscape:path-effect
       effect="bspline"
       id="path-effect60"
       is_visible="true"
       lpeversion="1.3"
       weight="33.333333"
       steps="2"
       helper_size="0"
       apply_no_weight="true"
       apply_with_weight="true"
       only_selected="false"
       uniform="false" />
    <inkscape:path-effect
       effect="powerstroke"
       id="path-effect58"
       is_visible="true"
       lpeversion="1.3"
       scale_width="1"
       interpolator_type="CubicBezierJohan"
       interpolator_beta="0.2"
       start_linecap_type="zerowidth"
       end_linecap_type="zerowidth"
       offset_points="0,4.9921383"
       linejoin_type="extrp_arc"
       miter_limit="4"
       not_jump="false"
       sort_points="true"
       message="&lt;b&gt;Ctrl + click&lt;/b&gt; on existing node and move it" />
    <inkscape:path-effect
       effect="bspline"
       id="path-effect57"
       is_visible="true"
       lpeversion="1.3"
       weight="33.333333"
       steps="2"
       helper_size="0"
       apply_no_weight="true"
       apply_with_weight="true"
       only_selected="false"
       uniform="false" />
    <inkscape:path-effect
       effect="powerstroke"
       id="path-effect55"
       is_visible="true"
       lpeversion="1.3"
       scale_width="1"
       interpolator_type="CubicBezierJohan"
       interpolator_beta="0.2"
       start_linecap_type="zerowidth"
       end_linecap_type="zerowidth"
       offset_points="0,4.9921383"
       linejoin_type="extrp_arc"
       miter_limit="4"
       not_jump="false"
       sort_points="true"
       message="&lt;b&gt;Ctrl + click&lt;/b&gt; on existing node and move it" />
    <inkscape:path-effect
       effect="bspline"
       id="path-effect54"
       is_visible="true"
       lpeversion="1.3"
       weight="33.333333"
       steps="2"
       helper_size="0"
       apply_no_weight="true"
       apply_with_weight="true"
       only_selected="false"
       uniform="false" />
    <inkscape:path-effect
       effect="bspline"
       id="path-effect53"
       is_visible="true"
       lpeversion="1.3"
       weight="33.333333"
       steps="2"
       helper_size="0"
       apply_no_weight="true"
       apply_with_weight="true"
       only_selected="false"
       uniform="false" />
    <inkscape:perspective
       sodipodi:type="inkscape:persp3d"
       inkscape:vp_x="0 : 235.05078 : 1"
       inkscape:vp_y="0 : 3779.5276 : 0"
       inkscape:vp_z="128 : 235.05078 : 1"
       inkscape:persp3d-origin="64 : 213.71745 : 1"
       id="perspective34" />
    <inkscape:path-effect
       effect="fill_between_many"
       method="bsplinespiro"
       autoreverse="false"
       close="false"
       join="false"
       linkedpaths="#path53,0,1"
       id="path-effect56"
       is_visible="true"
       lpeversion="0" />
    <inkscape:path-effect
       effect="fill_between_many"
       method="bsplinespiro"
       autoreverse="false"
       close="false"
       join="false"
       linkedpaths="#path56,0,1"
       id="path-effect59"
       is_visible="true"
       lpeversion="0" />
    <inkscape:path-effect
       effect="fill_between_many"
       method="bsplinespiro"
       autoreverse="false"
       close="false"
       join="false"
       linkedpaths="#path59,0,1"
       id="path-effect62"
       is_visible="true"
       lpeversion="0" />
  </defs>
  <g
     inkscape:label="Attitude"
     inkscape:groupmode="layer"
     id="layer1"
     style="display:inline">
    <circle
       style="fill:#ffffff;stroke-width:0"
       id="path2"
       cx="128"
       cy="128"
       r="8" />
    <rect
       style="fill:#ffffff;stroke-width:0"
       id="rect3"
       width="80"
       height="8"
       x="-1.110223e-16"
       y="124.00001" />
    <path
       d="M 79.999999,124.00001 74.343752,129.65625 128,183.3125 v -11.31249 z"
       style="fill:#ffffff;stroke-width:0"
       id="path7" />
    <path
       d="m 176,124.00001 -48,48 v 11.31249 l 53.65625,-53.65625 z"
       style="fill:#ffffff;stroke-width:0"
       id="path8" />
    <rect
       style="display:inline;fill:#ffffff;stroke-width:0"
       id="rect3-0"
       width="80"
       height="8"
       x="176"
       y="124.00001" />
  </g>
  <g
     inkscape:groupmode="layer"
     id="layer2"
     inkscape:label="Prograde"
     style="display:inline">
    <circle
       style="fill:#ffffff;stroke-width:0"
       id="path9"
       cx="128"
       cy="128"
       r="8" />
    <path
       d="M 128,79.999999 A 48,48 0 0 0 79.999999,128 48,48 0 0 0 128,176 48,48 0 0 0 176,128 48,48 0 0 0 128,79.999999 Z m 0,8.000006 A 40,40 0 0 1 168,128 40,40 0 0 1 128,168 40,40 0 0 1 88.000005,128 40,40 0 0 1 128,88.000005 Z"
       style="fill:#ffffff;stroke-width:0"
       id="path13" />
    <rect
       style="fill:#ffffff;stroke-width:0"
       id="rect13"
       width="8"
       height="52"
       x="124.00001"
       y="32" />
    <rect
       style="display:inline;fill:#ffffff;stroke-width:0"
       id="rect13-5"
       width="52"
       height="8"
       x="32"
       y="124.00001" />
    <rect
       style="display:inline;fill:#ffffff;stroke-width:0"
       id="rect13-5-7"
       width="52"
       height="8"
       x="172.00002"
       y="124.00001" />
  </g>
  <g
     inkscape:groupmode="layer"
     id="g16"
     inkscape:label="Retrograde"
     style="display:none">
    <path
       d="m 161.94113,94.058875 a 48,48 0 0 0 -67.882255,0 48,48 0 0 0 0,67.882255 48,48 0 0 0 67.882255,0 48,48 0 0 0 0,-67.882255 z m -5.65686,5.656857 a 40,40 0 0 1 1e-5,56.568548 40,40 0 0 1 -56.568556,0 40,40 0 0 1 8e-6,-56.568548 40,40 0 0 1 56.568538,0 z"
       style="fill:#ffffff;stroke-width:0"
       id="path14" />
    <rect
       style="fill:#ffffff;stroke-width:0"
       id="rect14"
       width="8"
       height="52"
       x="124.00001"
       y="32" />
    <rect
       style="display:inline;fill:#ffffff;stroke-width:0"
       id="rect16"
       width="52"
       height="8"
       x="218.85127"
       y="42.851254"
       transform="rotate(30)" />
    <rect
       style="display:inline;fill:#ffffff;stroke-width:0"
       id="rect15-5"
       width="52"
       height="8"
       x="-49.148754"
       y="170.85126"
       transform="rotate(-30)" />
    <rect
       style="fill:#ffffff;stroke-width:0"
       id="rect17"
       width="4"
       height="88"
       x="179.01935"
       y="-43.999996"
       transform="rotate(45)" />
    <rect
       style="display:inline;fill:#ffffff;stroke-width:0"
       id="rect17-9"
       width="88"
       height="4"
       x="137.01933"
       y="-1.9999918"
       transform="rotate(45)" />
  </g>
  <g
     inkscape:groupmode="layer"
     id="g22"
     inkscape:label="RadialIn"
     style="display:none">
    <path
       d="m 85.573593,85.573593 a 60.000001,60.000001 0 0 0 0,84.852817 60.000001,60.000001 0 0 0 84.852817,0 60.000001,60.000001 0 0 0 0,-84.852817 60.000001,60.000001 0 0 0 -84.852817,0 z m 5.656857,5.656857 a 52.000001,52.000001 0 0 1 73.53911,0 52.000001,52.000001 0 0 1 0,73.53911 52.000001,52.000001 0 0 1 -73.53911,-1e-5 52.000001,52.000001 0 0 1 0,-73.5391 z"
       style="fill:#ffffff;stroke-width:0"
       id="path26" />
    <rect
       style="fill:#ffffff;stroke-width:0"
       id="rect26"
       width="8"
       height="28"
       x="-3.999995"
       y="125.01934"
       transform="rotate(-45)" />
    <rect
       style="display:inline;fill:#ffffff;stroke-width:0"
       id="rect26-8"
       width="28"
       height="8"
       x="-56"
       y="177.01935"
       transform="rotate(-45)" />
    <rect
       style="display:inline;fill:#ffffff;stroke-width:0"
       id="rect26-8-0"
       width="28"
       height="8"
       x="28.000008"
       y="177.01935"
       transform="rotate(-45)" />
    <rect
       style="display:inline;fill:#ffffff;stroke-width:0"
       id="rect26-4"
       width="8"
       height="28"
       x="-3.999995"
       y="209.01935"
       transform="rotate(-45)" />
  </g>
  <g
     inkscape:groupmode="layer"
     id="g30"
     inkscape:label="RadialOut"
     style="display:none">
    <path
       d="m 85.573593,85.573601 a 60.000001,60.000001 0 0 0 0,84.852809 60.000001,60.000001 0 0 0 84.852817,1e-5 60.000001,60.000001 0 0 0 0,-84.852827 60.000001,60.000001 0 0 0 -84.852817,8e-6 z m 5.656857,5.656857 a 52.000001,52.000001 0 0 1 73.5391,-8e-6 52.000001,52.000001 0 0 1 0,73.53911 52.000001,52.000001 0 0 1 -73.5391,-1e-5 52.000001,52.000001 0 0 1 0,-73.539092 z"
       style="fill:#ffffff;stroke-width:0"
       id="path27" />
    <circle
       style="fill:#ffffff;stroke-width:0"
       id="circle27"
       cx="-8.1099861e-06"
       cy="181.01933"
       r="8"
       transform="rotate(-45)" />
    <rect
       style="fill:#ffffff;stroke-width:0"
       id="rect27"
       width="8"
       height="28"
       x="-3.9999976"
       y="97.019333"
       transform="rotate(-45)" />
    <rect
       style="display:inline;fill:#ffffff;stroke-width:0"
       id="rect28"
       width="28"
       height="8"
       x="-84"
       y="177.01935"
       transform="rotate(-45)" />
    <rect
       style="display:inline;fill:#ffffff;stroke-width:0"
       id="rect29"
       width="28"
       height="8"
       x="56.000004"
       y="177.01935"
       transform="rotate(-45)" />
    <rect
       style="display:inline;fill:#ffffff;stroke-width:0"
       id="rect30"
       width="8"
       height="28"
       x="-3.9999976"
       y="237.01935"
       transform="rotate(-45)" />
  </g>
  <g
     inkscape:groupmode="layer"
     id="g53"
     inkscape:label="Stablise"
     style="display:none">
    <path
       d="m 85.573593,85.573601 a 60.000001,60.000001 0 0 0 0,84.852809 60.000001,60.000001 0 0 0 84.852817,1e-5 60.000001,60.000001 0 0 0 0,-84.852827 60.000001,60.000001 0 0 0 -84.852817,8e-6 z m 5.656857,5.656857 a 52.000001,52.000001 0 0 1 73.5391,-8e-6 52.000001,52.000001 0 0 1 0,73.53911 52.000001,52.000001 0 0 1 -73.5391,-1e-5 52.000001,52.000001 0 0 1 0,-73.539092 z"
       style="fill:#ffffff;stroke-width:0"
       id="path50" />
    <rect
       style="fill:#ffffff;stroke-width:0"
       id="rect63"
       width="8"
       height="24"
       x="124.00001"
       y="116.00001" />
    <rect
       style="display:inline;fill:#ffffff;stroke-width:0"
       id="rect63-4"
       width="8"
       height="24"
       x="150"
       y="116.00001" />
    <rect
       style="display:inline;fill:#ffffff;stroke-width:0"
       id="rect63-4-8"
       width="8"
       height="24"
       x="98"
       y="116.00001" />
  </g>
  <g
     inkscape:groupmode="layer"
     id="g36"
     inkscape:label="Normal"
     style="display:none">
    <path
       d="M 128.05469,54.101564 64.000002,164.91797 192,164.98438 Z m -0.0113,18.472657 47.95703,83.164069 -96.000003,-0.0507 z"
       style="display:inline;fill:#ffffff;stroke-width:0"
       id="path37" />
    <circle
       style="fill:#ffffff;stroke-width:0"
       id="path39"
       cx="128"
       cy="128"
       r="8" />
  </g>
  <g
     inkscape:groupmode="layer"
     id="g38"
     inkscape:label="AntiNormal"
     style="display:none">
    <path
       d="M 128.05469,201.89844 64.000002,91.082036 192,91.015629 Z m -0.0113,-18.47265 47.95703,-83.16407 -96.000003,0.0507 z"
       style="display:inline;fill:#ffffff;stroke-width:0"
       id="path38" />
    <rect
       style="fill:#ffffff;stroke-width:0"
       id="rect39"
       width="8"
       height="48"
       x="124.00001"
       y="48" />
    <rect
       style="display:inline;fill:#ffffff;stroke-width:0"
       id="rect39-8-0"
       width="8"
       height="48"
       x="-50.85125"
       y="206.85126"
       transform="rotate(-60)" />
    <rect
       style="display:inline;fill:#ffffff;stroke-width:0"
       id="rect39-8-0-7"
       width="8"
       height="48"
       x="170.85126"
       y="-14.851258"
       transform="rotate(60)" />
    <circle
       style="display:inline;fill:#ffffff;stroke-width:0"
       id="path39-9"
       cx="128"
       cy="128"
       r="8" />
    <g
       inkscape:groupmode="layer"
       id="g43"
       inkscape:label="Target"
       style="display:none">
      <path
         d="M 15.345833,24.703918 V 23.604761 A 6.8791666,6.8791666 0 0 1 12.069031,21.797636 6.8791666,6.8791666 0 0 1 10.261906,18.520833 H 9.1627482 a 7.9375,7.9375 0 0 0 2.1580078,4.025078 7.9375,7.9375 0 0 0 4.025077,2.158007 z"
         style="display:inline;stroke-width:0"
         id="path49" />
      <path
         d="m 18.520833,23.604761 v 1.099157 a 7.9375,7.9375 0 0 0 4.025078,-2.158007 7.9375,7.9375 0 0 0 2.161625,-4.025078 h -1.082105 a 6.8791666,6.8791666 0 0 1 -1.827795,3.276803 6.8791666,6.8791666 0 0 1 -3.276803,1.807125 z"
         style="display:inline;stroke-width:0"
         id="path48" />
      <path
         d="m 18.520833,9.1627482 v 1.0991578 a 6.8791666,6.8791666 0 0 1 3.276803,1.807125 6.8791666,6.8791666 0 0 1 1.827795,3.276802 h 1.082105 A 7.9375,7.9375 0 0 0 22.545911,11.320756 7.9375,7.9375 0 0 0 18.520833,9.1627482 Z"
         style="display:inline;stroke-width:0"
         id="path47" />
      <path
         d="m 9.1627482,15.345833 h 1.0991578 a 6.8791666,6.8791666 0 0 1 1.807125,-3.276802 6.8791666,6.8791666 0 0 1 3.276802,-1.807125 V 9.1627482 a 7.9375,7.9375 0 0 0 -4.025077,2.1580078 7.9375,7.9375 0 0 0 -2.1580078,4.025077 z"
         style="display:inline;stroke-width:0"
         id="path46" />
    </g>
  </g>
  <g
     inkscape:groupmode="layer"
     id="g70"
     inkscape:label="Manuever"
     style="display:none">
    <rect
       style="fill:#ffffff;stroke-width:0"
       id="rect64"
       width="8"
       height="48"
       x="124.00001"
       y="60" />
    <circle
       style="display:inline;fill:#ffffff;stroke-width:0"
       id="circle66"
       cx="128"
       cy="128"
       r="8" />
    <rect
       style="display:inline;fill:#ffffff;stroke-width:0"
       id="rect64-0"
       width="8"
       height="48"
       x="124.00001"
       y="59.999996" />
    <rect
       style="display:inline;fill:#ffffff;stroke-width:0"
       id="rect70-0"
       width="64"
       height="8"
       x="96"
       y="56" />
    <rect
       style="display:inline;fill:#ffffff;stroke-width:0"
       id="rect64-0-4"
       width="8"
       height="48"
       x="42.851254"
       y="-242.85126"
       transform="rotate(120)" />
    <rect
       style="display:inline;fill:#ffffff;stroke-width:0"
       id="rect70-0-8"
       width="64"
       height="8"
       x="14.851249"
       y="-246.85126"
       transform="rotate(120)" />
    <rect
       style="display:inline;fill:#ffffff;stroke-width:0"
       id="rect64-0-8"
       width="8"
       height="48"
       x="-178.85124"
       y="-21.148739"
       transform="rotate(-120)" />
    <rect
       style="display:inline;fill:#ffffff;stroke-width:0"
       id="rect70-0-2"
       width="64"
       height="8"
       x="-206.85126"
       y="-25.148735"
       transform="rotate(-120)" />
  </g>
  <g
     inkscape:groupmode="layer"
     id="g78"
     inkscape:label="Target"
     style="display:none">
    <circle
       style="display:inline;fill:#ffffff;stroke-width:0"
       id="circle71"
       cx="128"
       cy="128"
       r="8" />
    <path
       d="m 116,186.73828 v -8.30859 A 52.000001,52.000001 0 0 1 91.230473,164.76954 52.000001,52.000001 0 0 1 77.570315,140 H 69.26172 A 60.000001,60.000001 0 0 0 85.574221,170.42579 60.000001,60.000001 0 0 0 116,186.73828 Z"
       style="display:inline;fill:#ffffff;stroke-width:0"
       id="path74" />
    <path
       d="m 140,178.42969 v 8.30859 A 60.000001,60.000001 0 0 0 170.42579,170.42579 60.000001,60.000001 0 0 0 186.76563,140 h -8.17969 A 52.000001,52.000001 0 0 1 164.76954,164.76954 52.000001,52.000001 0 0 1 140,178.42969 Z"
       style="display:inline;fill:#ffffff;stroke-width:0"
       id="path75" />
    <path
       d="m 140,69.26172 v 8.308595 A 52.000001,52.000001 0 0 1 164.76954,91.230473 52.000001,52.000001 0 0 1 178.58594,116 h 8.17969 A 60.000001,60.000001 0 0 0 170.42579,85.574221 60.000001,60.000001 0 0 0 140,69.26172 Z"
       style="display:inline;fill:#ffffff;stroke-width:0"
       id="path76" />
    <path
       d="m 69.26172,116 h 8.308595 A 52.000001,52.000001 0 0 1 91.230473,91.230473 52.000001,52.000001 0 0 1 116,77.570315 V 69.26172 A 60.000001,60.000001 0 0 0 85.574221,85.574221 60.000001,60.000001 0 0 0 69.26172,116 Z"
       style="display:inline;fill:#ffffff;stroke-width:0"
       id="path77" />
  </g>
  <g
     inkscape:groupmode="layer"
     id="g81"
     inkscape:label="AntiTarget"
     style="display:none">
    <path
       d="m 69.265732,115.99033 h 8.308582 A 52.000001,52.000001 0 0 1 91.234472,91.220805 52.000001,52.000001 0 0 1 116.00401,77.560654 V 69.252057 A 60.000001,60.000001 0 0 0 85.578219,85.564553 60.000001,60.000001 0 0 0 69.265732,115.99033 Z"
       style="display:inline;fill:#ffffff;stroke-width:0"
       id="path78" />
    <path
       d="m 77.574314,139.99033 h -8.308582 a 60.000001,60.000001 0 0 0 16.312487,30.42579 60.000001,60.000001 0 0 0 30.425791,16.33984 v -8.17969 A 52.000001,52.000001 0 0 1 91.234479,164.75987 52.000001,52.000001 0 0 1 77.574314,139.99033 Z"
       style="display:inline;fill:#ffffff;stroke-width:0"
       id="path79" />
    <path
       d="m 186.74229,139.99033 h -8.3086 a 52.000001,52.000001 0 0 1 -13.66015,24.76955 52.000001,52.000001 0 0 1 -24.76953,13.81639 v 8.17969 a 60.000001,60.000001 0 0 0 30.42578,-16.33984 60.000001,60.000001 0 0 0 16.3125,-30.42579 z"
       style="display:inline;fill:#ffffff;stroke-width:0"
       id="path80" />
    <path
       d="m 140.00401,69.252057 v 8.308597 a 52.000001,52.000001 0 0 1 24.76953,13.660151 52.000001,52.000001 0 0 1 13.66015,24.769525 h 8.3086 A 60.000001,60.000001 0 0 0 170.42979,85.564553 60.000001,60.000001 0 0 0 140.00401,69.252057 Z"
       style="display:inline;fill:#ffffff;stroke-width:0"
       id="path81" />
    <rect
       style="fill:#ffffff;stroke-width:0"
       id="rect81"
       width="4"
       height="112"
       x="179.01134"
       y="-56.000004"
       transform="rotate(45)" />
    <rect
       style="display:inline;fill:#ffffff;stroke-width:0"
       id="rect81-9"
       width="112"
       height="4"
       x="125.01132"
       y="-1.9999937"
       transform="rotate(45)" />
  </g>
</svg>
